<svg xmlns="http://www.w3.org/2000/svg">
    <symbol id="icon-clock" viewBox="0 0 24 24" fill="none" stroke="currentColor" stroke-width="2" stroke-linecap="round" stroke-linejoin="round"><circle cx="12" cy="12" r="10"/><polyline points="12 6 12 12 16 14"/></symbol>
    <symbol id="icon-chart" viewBox="0 0 24 24" fill="none" stroke="currentColor" stroke-width="2" stroke-linecap="round" stroke-linejoin="round"><path d="M3 3v18h18"/><path d="m19 9-5 5-4-4-3 3"/></symbol>
    <symbol id="icon-folder" viewBox="0 0 24 24" fill="none" stroke="currentColor" stroke-width="2" stroke-linecap="round" stroke-linejoin="round"><path d="M22 19a2 2 0 0 1-2 2H4a2 2 0 0 1-2-2V5a2 2 0 0 1 2-2h5l2 3h9a2 2 0 0 1 2 2z"/><path d="M8 12h8"/><path d="M8 16h6"/></symbol>
    <symbol id="icon-calculator" viewBox="0 0 24 24" fill="none" stroke="currentColor" stroke-width="2" stroke-linecap="round" stroke-linejoin="round"><rect width="16" height="20" x="4" y="2" rx="2"/><line x1="8" x2="16" y1="6" y2="6"/><line x1="16" x2="16" y1="14" y2="18"/><path d="M16 10h.01"/><path d="M12 10h.01"/><path d="M8 10h.01"/><path d="M12 14h.01"/><path d="M8 14h.01"/><path d="M12 18h.01"/><path d="M8 18h.01"/></symbol>
    <symbol id="icon-reset" viewBox="0 0 24 24" fill="none" stroke="currentColor" stroke-width="2" stroke-linecap="round" stroke-linejoin="round"><path d="M3 12a9 9 0 0 1 9-9 9.75 9.75 0 0 1 6.74 2.74L21 8"/><path d="M21 3v5h-5"/><path d="M21 12a9 9 0 0 1-9 9 9.75 9.75 0 0 1-6.74-2.74L3 16"/><path d="M3 21v-5h5"/></symbol>
    <symbol id="icon-copy" viewBox="0 0 24 24" fill="none" stroke="currentColor" stroke-width="2" stroke-linecap="round" stroke-linejoin="round"><rect width="14" height="14" x="8" y="8" rx="2" ry="2"/><path d="M4 16c-1.1 0-2-.9-2-2V4c0-1.1.9-2 2-2h10c1.1 0 2 .9 2 2"/></symbol>
    <symbol id="icon-chevron-down" viewBox="0 0 24 24" fill="none" stroke="currentColor" stroke-width="2" stroke-linecap="round" stroke-linejoin="round"><path d="m6 9 6 6 6-6"/></symbol>
    <symbol id="icon-compare" viewBox="0 0 24 24" fill="none" stroke="currentColor" stroke-width="2" stroke-linecap="round" stroke-linejoin="round"><path d="m21 7-4-4-4 4"/><path d="M17 3v18"/><path d="m3 17 4 4 4-4"/><path d="M7 21V3"/></symbol>
    <symbol id="icon-euro" viewBox="0 0 24 24" fill="none" stroke="currentColor" stroke-width="2" stroke-linecap="round" stroke-linejoin="round"><path d="M4 10h12"/><path d="M4 14h9"/><path d="M19 6a7.7 7.7 0 0 0-5.2-2A7.9 7.9 0 0 0 6 12c0 4.4 3.5 8 7.8 8 2 0 3.8-.8 5.2-2"/></symbol>
    <symbol id="icon-facebook" viewBox="0 0 24 24" fill="none" stroke="currentColor" stroke-width="2" stroke-linecap="round" stroke-linejoin="round"><path d="M18 2h-3a5 5 0 0 0-5 5v3H7v4h3v8h4v-8h3l1-4h-4V7a1 1 0 0 1 1-1h3z"/></symbol>
    <symbol id="icon-twitter" viewBox="0 0 24 24" fill="none" stroke="currentColor" stroke-width="2" stroke-linecap="round" stroke-linejoin="round"><path d="M22 4s-.7 2.1-2 3.4c1.6 10-9.4 17.3-18 11.6 2.2.1 4.4-.6 6-2C3 15.5.5 9.6 3 5c2.2 2.6 5.6 4.1 9 4-.9-4.2 4-6.6 7-3.8 1.1 0 3-1.2 3-1.2z"/></symbol>
    <symbol id="icon-threads" viewBox="0 0 24 24" fill="currentColor"><path d="M12.186 24h-.007c-3.581-.024-6.334-1.205-8.184-3.509C2.35 18.44 1.5 15.586 1.472 12.01v-.017c.03-3.579.879-6.43 2.525-8.482C5.845 1.205 8.6.024 12.18 0h.014c2.746.02 5.043.725 6.826 2.098 1.677 1.29 2.858 3.13 3.509 5.467l-2.04.569c-1.104-3.96-3.898-5.984-8.304-6.015-2.91.022-5.11.936-6.54 2.717C4.307 6.504 3.616 8.914 3.589 12c.027 3.086.718 5.496 2.057 7.164 1.43 1.783 3.631 2.698 6.54 2.717 2.623-.02 4.358-.631 5.8-2.045 1.647-1.613 1.618-3.593 1.09-4.798-.31-.71-.873-1.3-1.634-1.75-.192 1.352-.622 2.446-1.284 3.272-.886 1.102-2.14 1.704-3.73 1.79-1.202.065-2.361-.218-3.259-.801-1.063-.689-1.685-1.74-1.752-2.964-.065-1.19.408-2.285 1.33-3.082.88-.76 2.119-1.207 3.583-1.291a13.853 13.853 0 0 1 3.02.142c-.126-.742-.375-1.332-.75-1.757-.513-.586-1.308-.883-2.359-.89h-.029c-.844 0-1.992.232-2.721 1.32L7.734 7.847c.98-1.454 2.568-2.256 4.478-2.256h.044c3.194.02 5.097 1.975 5.287 5.388.108.046.216.094.321.142 1.49.7 2.58 1.761 3.154 3.07.797 1.82.871 4.79-1.548 7.158-1.85 1.81-4.094 2.628-7.277 2.65Zm1.003-11.69c-.242 0-.487.007-.739.021-1.836.103-2.98.946-2.916 2.143.067 1.256 1.452 1.839 2.784 1.767 1.224-.065 2.818-.543 3.086-3.71a10.5 10.5 0 0 0-2.215-.221z"/></symbol>
    <symbol id="icon-tumblr" viewBox="0 0 24 24" fill="currentColor"><path d="M14.084 21c-4.248 0-6.442-3.054-6.442-6.596V8.748H4.27V4.392c2.88-.972 4.12-3.464 4.468-5.392h3.996v5.224h5.318v4.524h-5.318v5.086c0 1.632.85 2.448 2.322 2.448.946 0 1.796-.26 2.66-.688v4.114C16.7 20.48 15.456 21 14.084 21z"/></symbol>
    <symbol id="icon-mastodon" viewBox="0 0 24 24" fill="currentColor"><path d="M21.58 10.47c0-4.75-3.12-6.14-3.12-6.14C16.89 3.62 14.14 3.3 12.02 3.29h-.05c-2.12.01-4.87.33-6.44 1.04 0 0-3.11 1.39-3.11 6.14 0 1.09-.02 2.39.01 3.77.1 4.65.85 9.23 5.13 10.36 1.97.52 3.66.63 5.03.56 2.48-.12 3.87-.79 3.87-.79l-.08-1.76s-1.77.56-3.76.49c-1.97-.07-4.06-.21-4.38-2.63-.03-.23-.05-.48-.05-.74 0 0 1.94.47 4.4.58 1.5.07 2.91-.09 4.35-.27 2.77-.33 5.18-2.03 5.48-3.58.48-2.44.44-5.95.44-5.95Zm-3.62 5.86h-2.24v-5.5c0-1.16-.49-1.75-1.47-1.75-1.08 0-1.62.7-1.62 2.09v3.01H10.4V11.17c0-1.39-.54-2.09-1.62-2.09-.98 0-1.47.59-1.47 1.75v5.5H5.07v-5.67c0-1.16.3-2.07.9-2.74.62-.67 1.42-1.01 2.41-1.01 1.14 0 2 .44 2.57 1.32l.55.92.55-.92c.57-.88 1.43-1.32 2.57-1.32.99 0 1.79.34 2.41 1.01.6.67.9 1.58.9 2.74v5.67Z"/></symbol>
    <symbol id="icon-reddit" viewBox="0 0 24 24" fill="currentColor"><path d="M12 0C5.373 0 0 5.373 0 12c0 3.314 1.343 6.314 3.515 8.485l-2.286 2.286C.775 23.225 1.097 24 1.738 24H12c6.627 0 12-5.373 12-12S18.627 0 12 0Zm4.388 3.199c1.104 0 1.999.895 1.999 1.999 0 1.105-.895 2-1.999 2-.946 0-1.739-.657-1.947-1.539v.002c-1.147.162-2.032 1.15-2.032 2.341v.007c1.776.067 3.4.567 4.686 1.363.473-.363 1.064-.58 1.707-.58 1.547 0 2.802 1.254 2.802 2.802 0 1.117-.655 2.081-1.601 2.531-.088 3.256-3.637 5.876-7.997 5.876-4.361 0-7.905-2.617-7.998-5.87-.954-.447-1.614-1.415-1.614-2.538 0-1.548 1.255-2.802 2.803-2.802.645 0 1.239.218 1.712.585 1.275-.79 2.881-1.291 4.64-1.365v-.01c0-1.663 1.263-3.034 2.88-3.207.188-.911.993-1.595 1.959-1.595Zm-8.085 8.376c-.784 0-1.459.78-1.506 1.797-.047 1.016.64 1.429 1.426 1.429.786 0 1.371-.369 1.418-1.385.047-1.017-.553-1.841-1.338-1.841Zm7.406 0c-.786 0-1.385.824-1.338 1.841.047 1.017.634 1.385 1.418 1.385.785 0 1.473-.413 1.426-1.429-.046-1.017-.721-1.797-1.506-1.797Zm-3.703 4.013c-.974 0-1.907.048-2.77.135-.147.015-.241.168-.183.305.483 1.154 1.622 1.964 2.953 1.964 1.33 0 2.47-.81 2.953-1.964.057-.137-.037-.29-.184-.305-.863-.087-1.795-.135-2.769-.135Z"/></symbol>
    <symbol id="icon-whatsapp" viewBox="0 0 24 24" fill="currentColor"><path d="M17.472 14.382c-.297-.149-1.758-.867-2.03-.967-.273-.099-.471-.148-.67.15-.197.297-.767.966-.94 1.164-.173.199-.347.223-.644.075-.297-.15-1.255-.463-2.39-1.475-.883-.788-1.48-1.761-1.653-2.059-.173-.297-.018-.458.13-.606.134-.133.298-.347.446-.52.149-.174.198-.298.298-.497.099-.198.05-.371-.025-.52-.075-.149-.669-1.612-.916-2.207-.242-.579-.487-.5-.669-.51-.173-.008-.371-.01-.57-.01-.198 0-.52.074-.792.372-.272.297-1.04 1.016-1.04 2.479 0 1.462 1.065 2.875 1.213 3.074.149.198 2.096 3.2 5.077 4.487.709.306 1.262.489 1.694.625.712.227 1.36.195 1.871.118.571-.085 1.758-.719 2.006-1.413.248-.694.248-1.289.173-1.413-.074-.124-.272-.198-.57-.347m-5.421 7.403h-.004a9.87 9.87 0 01-5.031-1.378l-.361-.214-3.741.982.998-3.648-.235-.374a9.86 9.86 0 01-1.51-5.26c.001-5.45 4.436-9.884 9.888-9.884 2.64 0 5.122 1.03 6.988 2.898a9.825 9.825 0 012.893 6.994c-.003 5.45-4.437 9.884-9.885 9.884m8.413-18.297A11.815 11.815 0 0012.05 0C5.495 0 .16 5.335.157 11.892c0 2.096.547 4.142 1.588 5.945L.057 24l6.305-1.654a11.882 11.882 0 005.683 1.448h.005c6.554 0 11.89-5.335 11.893-11.893a11.821 11.821 0 00-3.48-8.413z"/></symbol>
    <symbol id="icon-telegram" viewBox="0 0 24 24" fill="currentColor"><path d="M2.116 11.075l19.047-7.348c.885-.34 1.658.216 1.375 1.514l-3.239 15.27c-.241 1.137-.928 1.126-1.523.5l-4.234-3.928-2.041 1.964c-.226.226-.416.416-.852.416l.303-4.312 7.833-7.074c.34-.303-.074-.462-.527-.159l-9.68 6.093-4.174-1.302c-.907-.288-.926-.907.192-1.344z"/></symbol>
    <symbol id="icon-messenger" viewBox="0 0 24 24" fill="currentColor"><path d="M12 0C5.373 0 0 4.974 0 11.111c0 3.498 1.744 6.614 4.469 8.654V24l4.088-2.242c1.092.301 2.246.464 3.443.464 6.627 0 12-4.975 12-11.111S18.627 0 12 0zm1.191 14.963l-3.055-3.26-5.963 3.26L10.732 8l3.131 3.259L19.752 8l-6.561 6.963z"/></symbol>
    <symbol id="icon-pinterest" viewBox="0 0 24 24" fill="currentColor"><path d="M12 0C5.373 0 0 5.372 0 12c0 5.084 3.163 9.426 7.627 11.174-.105-.949-.2-2.405.042-3.441.218-.937 1.407-5.965 1.407-5.965s-.359-.719-.359-1.782c0-1.668.967-2.914 2.171-2.914 1.023 0 1.518.769 1.518 1.69 0 1.029-.655 2.568-.994 3.995-.283 1.194.599 2.169 1.777 2.169 2.133 0 3.772-2.249 3.772-5.495 0-2.873-2.064-4.882-5.012-4.882-3.414 0-5.418 2.561-5.418 5.207 0 1.031.397 2.138.893 2.738.098.119.112.224.083.345l-.333 1.36c-.053.22-.174.267-.402.161-1.499-.698-2.436-2.889-2.436-4.649 0-3.785 2.75-7.262 7.929-7.262 4.163 0 7.398 2.967 7.398 6.931 0 4.136-2.607 7.464-6.227 7.464-1.216 0-2.359-.632-2.75-1.378l-.748 2.853c-.271 1.043-1.002 2.35-1.492 3.146C9.57 23.812 10.763 24 12 24c6.627 0 12-5.373 12-12 0-6.628-5.373-12-12-12z"/></symbol>
    <symbol id="icon-linkedin" viewBox="0 0 24 24" fill="none" stroke="currentColor" stroke-width="2" stroke-linecap="round" stroke-linejoin="round"><path d="M16 8a6 6 0 0 1 6 6v7h-4v-7a2 2 0 0 0-2-2 2 2 0 0 0-2 2v7h-4v-7a6 6 0 0 1 6-6z"/><rect width="4" height="12" x="2" y="9"/><circle cx="4" cy="4" r="2"/></symbol>
    <symbol id="icon-bluesky" viewBox="0 0 24 24" fill="currentColor"><path d="M12 10.8c-1.087-2.114-4.046-6.053-6.798-7.995C2.566.944 1.561 1.266.902 1.565.139 1.908 0 3.08 0 3.768c0 .69.378 5.65.624 6.479.815 2.736 3.713 3.66 6.383 3.364.136-.02.275-.039.415-.056-.138.022-.276.04-.415.056-3.912.58-7.387 2.005-2.83 7.078 5.013 5.19 6.87-1.113 7.823-4.642.953 3.531 2.05 9.659 7.733 4.642 4.267-4.267 1.172-6.498-2.74-7.078a8.741 8.741 0 0 1-.415-.056c.14.017.279.036.415.056 2.67.297 5.568-.628 6.383-3.364.246-.828.624-5.79.624-6.478 0-.69-.139-1.861-.902-2.206-.659-.298-1.664-.62-4.3 1.24C16.046 4.748 13.087 8.687 12 10.8Z"/></symbol>
    <symbol id="icon-instagram" viewBox="0 0 24 24" fill="currentColor"><path d="M12 2.163c3.204 0 3.584.012 4.85.07 3.252.148 4.771 1.691 4.919 4.919.058 1.265.069 1.645.069 4.849 0 3.205-.012 3.584-.069 4.849-.149 3.225-1.664 4.771-4.919 4.919-1.266.058-1.644.07-4.85.07-3.204 0-3.584-.012-4.849-.07-3.26-.149-4.771-1.699-4.919-4.92-.058-1.265-.07-1.644-.07-4.849 0-3.204.013-3.583.07-4.849.149-3.227 1.664-4.771 4.919-4.919 1.266-.057 1.645-.069 4.849-.069zm0-2.163c-3.259 0-3.667.014-4.947.072-4.358.2-6.78 2.618-6.98 6.98-.059 1.281-.073 1.689-.073 4.948 0 3.259.014 3.668.072 4.948.2 4.358 2.618 6.78 6.98 6.98 1.281.058 1.689.072 4.948.072 3.259 0 3.668-.014 4.948-.072 4.354-.2 6.782-2.618 6.979-6.98.059-1.28.073-1.689.073-4.948 0-3.259-.014-3.667-.072-4.947-.196-4.354-2.617-6.78-6.979-6.98-1.281-.059-1.69-.073-4.949-.073zm0 5.838c-3.403 0-6.162 2.759-6.162 6.162s2.759 6.163 6.162 6.163 6.162-2.759 6.162-6.163c0-3.403-2.759-6.162-6.162-6.162zm0 10.162c-2.209 0-4-1.79-4-4 0-2.209 1.791-4 4-4s4 1.791 4 4c0 2.21-1.791 4-4 4zm6.406-11.845c-.796 0-1.441.645-1.441 1.44s.645 1.44 1.441 1.44c.795 0 1.439-.645 1.439-1.44s-.644-1.44-1.439-1.44z"/></symbol>
    <symbol id="icon-snapchat" viewBox="0 0 24 24" fill="currentColor"><path d="M12.206.793c.99 0 4.347.276 5.93 3.821.529 1.193.403 3.219.299 4.847l-.003.06c-.012.18-.022.345-.03.51.075.045.203.09.401.09.3-.016.659-.12 1.033-.301.165-.088.344-.104.464-.104.182 0 .359.029.509.09.45.149.734.479.734.838.015.449-.39.839-1.213 1.168-.089.029-.209.075-.344.119-.45.135-1.139.36-1.333.81-.09.224-.061.524.12.868l.015.015c.06.136 1.526 3.475 4.791 4.014.255.044.435.27.42.509 0 .075-.015.149-.045.225-.24.569-1.273.988-3.146 1.271-.059.091-.12.375-.164.57-.029.179-.074.36-.134.553-.076.271-.27.405-.555.405h-.03c-.135 0-.313-.031-.538-.074-.36-.075-.765-.135-1.273-.135-.3 0-.599.015-.913.074-.6.104-1.123.464-1.723.884-.853.599-1.826 1.288-3.294 1.288-.06 0-.119-.015-.18-.015h-.149c-1.468 0-2.427-.675-3.279-1.288-.599-.42-1.107-.779-1.707-.884-.314-.045-.629-.074-.928-.074-.54 0-.958.089-1.272.149-.211.043-.391.074-.54.074-.374 0-.523-.224-.583-.42-.061-.192-.09-.389-.135-.567-.046-.181-.105-.494-.166-.57-1.918-.222-2.95-.642-3.189-1.226-.031-.063-.052-.15-.055-.225-.015-.243.165-.465.42-.509 3.264-.54 4.73-3.879 4.791-4.02l.016-.029c.18-.345.224-.645.119-.869-.195-.434-.884-.658-1.332-.809-.121-.029-.24-.074-.346-.119-1.107-.435-1.257-.93-1.197-1.273.09-.479.674-.793 1.168-.793.146 0 .27.029.383.074.42.194.789.3 1.104.3.234 0 .384-.06.465-.105l-.046-.569c-.098-1.626-.225-3.651.307-4.837C7.392 1.077 10.739.807 11.727.807l.419-.015h.06z"/></symbol>
    <symbol id="icon-tiktok" viewBox="0 0 24 24" fill="currentColor"><path d="M15.5 3c.52 1.38 1.58 2.46 3 3.02V9c-1.14 0-2.24-.32-3.2-.9v6.18a5.3 5.3 0 1 1-5.3-5.3c.23 0 .47.02.7.06v2.86a2.52 2.52 0 1 0 1.86 2.42V3h2.94z"/></symbol>
    <symbol id="icon-email" viewBox="0 0 24 24" fill="none" stroke="currentColor" stroke-width="2" stroke-linecap="round" stroke-linejoin="round"><rect width="20" height="16" x="2" y="4" rx="2"/><path d="m22 7-8.97 5.7a1.94 1.94 0 0 1-2.06 0L2 7"/></symbol>
    <symbol id="icon-sms" viewBox="0 0 24 24" fill="currentColor"><path d="M20 2H4a2 2 0 0 0-2 2v18l4-4h14a2 2 0 0 0 2-2V4a2 2 0 0 0-2-2zM9 11H7V9h2v2zm4 0h-2V9h2v2zm4 0h-2V9h2v2z"/></symbol>
    <symbol id="icon-share" viewBox="0 0 24 24" fill="none" stroke="currentColor" stroke-width="2" stroke-linecap="round" stroke-linejoin="round"><path d="M4 12v8a2 2 0 0 0 2 2h12a2 2 0 0 0 2-2v-8"/><polyline points="16 6 12 2 8 6"/><line x1="12" x2="12" y1="2" y2="15"/></symbol>
    <symbol id="icon-close" viewBox="0 0 24 24" fill="none" stroke="currentColor" stroke-width="2" stroke-linecap="round" stroke-linejoin="round"><path d="M18 6 6 18"/><path d="m6 6 12 12"/></symbol>
</svg>
