<svg xmlns="http://www.w3.org/2000/svg"><symbol id="icon-clock" fill="none" stroke="currentColor" stroke-linecap="round" stroke-linejoin="round" stroke-width="2" viewBox="0 0 24 24"><circle cx="12" cy="12" r="10"/><path d="M12 6v6l4 2"/></symbol><symbol id="icon-chart" fill="none" stroke="currentColor" stroke-linecap="round" stroke-linejoin="round" stroke-width="2" viewBox="0 0 24 24"><path d="M3 3v18h18"/><path d="m19 9-5 5-4-4-3 3"/></symbol><symbol id="icon-folder" fill="none" stroke="currentColor" stroke-linecap="round" stroke-linejoin="round" stroke-width="2" viewBox="0 0 24 24"><path d="M22 19a2 2 0 0 1-2 2H4a2 2 0 0 1-2-2V5a2 2 0 0 1 2-2h5l2 3h9a2 2 0 0 1 2 2zM8 12h8m-8 4h6"/></symbol><symbol id="icon-calculator" fill="none" stroke="currentColor" stroke-linecap="round" stroke-linejoin="round" stroke-width="2" viewBox="0 0 24 24"><rect width="16" height="20" x="4" y="2" rx="2"/><path d="M8 6h8m0 8v4m0-8h.01M8 18"/></symbol><symbol id="icon-reset" fill="none" stroke="currentColor" stroke-linecap="round" stroke-linejoin="round" stroke-width="2" viewBox="0 0 24 24"><path d="M3 12a9 9 0 0 1 9-9 9.8 9.8 0 0 1 6.74 2.74L21 8"/><path d="M21 3v5h-5m5 4a9 9 0 0 1-9 9 9.8 9.8 0 0 1-6.74-2.74L3 16"/><path d="M3 21v-5h5"/></symbol><symbol id="icon-copy" fill="none" stroke="currentColor" stroke-linecap="round" stroke-linejoin="round" stroke-width="2" viewBox="0 0 24 24"><rect width="14" height="14" x="8" y="8" rx="2" ry="2"/><path d="M4 16a2 2 0 0 1-2-2V4c0-1.1.9-2 2-2h10a2 2 0 0 1 2 2"/></symbol><symbol id="icon-chevron-down" fill="none" stroke="currentColor" stroke-linecap="round" stroke-linejoin="round" stroke-width="2" viewBox="0 0 24 24"><path d="m6 9 6 6 6-6"/></symbol><symbol id="icon-compare" fill="none" stroke="currentColor" stroke-linecap="round" stroke-linejoin="round" stroke-width="2" viewBox="0 0 24 24"><path d="m21 7-4-4-4 4m4-4v18M3 17l4 4 4-4m-4 4V3"/></symbol><symbol id="icon-euro" fill="none" stroke="currentColor" stroke-linecap="round" stroke-linejoin="round" stroke-width="2" viewBox="0 0 24 24"><path d="M4 10h12M4 14h9m6-8a7.7 7.7 0 0 0-5.2-2A7.9 7.9 0 0 0 6 12c0 4.4 3.5 8 7.8 8a8 8 0 0 0 5.2-2"/></symbol><symbol id="icon-facebook" fill="none" stroke="currentColor" stroke-linecap="round" stroke-linejoin="round" stroke-width="2" viewBox="0 0 24 24"><path d="M18 2h-3a5 5 0 0 0-5 5v3H7v4h3v8h4v-8h3l1-4h-4V7a1 1 0 0 1 1-1h3z"/></symbol><symbol id="icon-twitter" fill="none" stroke="currentColor" stroke-linecap="round" stroke-linejoin="round" stroke-width="2" viewBox="0 0 24 24"><path d="M22 4s-.7 2.1-2 3.4c1.6 10-9.4 17.3-18 11.6 2.2.1 4.4-.6 6-2C3 15.5.5 9.6 3 5c2.2 2.6 5.6 4.1 9 4-.9-4.2 4-6.6 7-3.8 1.1 0 3-1.2 3-1.2"/></symbol><symbol id="icon-threads" fill="currentColor" viewBox="0 0 24 24"><path d="M12.19 24q-5.4-.04-8.19-3.5-2.48-3.1-2.53-8.5v-.02Q1.52 6.6 4 3.51C5.84 1.21 8.6.02 12.18 0h.01q4.14.04 6.83 2.1a10 10 0 0 1 3.5 5.47l-2.03.56c-1.1-3.96-3.9-5.98-8.3-6.01q-4.38.04-6.54 2.72Q3.64 7.34 3.59 12q.05 4.65 2.06 7.16 2.16 2.69 6.54 2.72c2.62-.02 4.35-.63 5.8-2.04a4.3 4.3 0 0 0 1.09-4.8 4 4 0 0 0-1.64-1.75 6.6 6.6 0 0 1-1.28 3.27 4.9 4.9 0 0 1-3.73 1.79 5.5 5.5 0 0 1-3.26-.8 3.74 3.74 0 0 1-.42-6.05 6 6 0 0 1 3.58-1.29 14 14 0 0 1 3.02.14 3.5 3.5 0 0 0-.75-1.75q-.77-.88-2.36-.9h-.03c-.84 0-1.99.24-2.72 1.33L7.73 7.85a5.2 5.2 0 0 1 4.48-2.26h.05c3.19.02 5.1 1.98 5.28 5.39l.32.14a6.2 6.2 0 0 1 3.16 3.07 6.4 6.4 0 0 1-1.55 7.16c-1.85 1.8-4.1 2.63-7.28 2.65m1-11.69-.74.02c-1.84.1-2.98.95-2.92 2.14.07 1.26 1.46 1.84 2.79 1.77 1.22-.06 2.82-.54 3.08-3.7a11 11 0 0 0-2.21-.23"/></symbol><symbol id="icon-tumblr" fill="currentColor" viewBox="0 0 24 24"><path d="M14.08 21c-4.24 0-6.44-3.05-6.44-6.6V8.75H4.27V4.39A6.8 6.8 0 0 0 8.74-1h4v5.22h5.31v4.53h-5.32v5.08c0 1.64.85 2.45 2.33 2.45.94 0 1.8-.26 2.66-.69v4.12A6 6 0 0 1 14.08 21"/></symbol><symbol id="icon-mastodon" fill="currentColor" viewBox="0 0 24 24"><path d="M21.58 10.47c0-4.75-3.12-6.14-3.12-6.14-1.57-.71-4.32-1.03-6.44-1.04h-.05c-2.12.01-4.87.33-6.44 1.04 0 0-3.11 1.39-3.11 6.14 0 1.09-.02 2.39.01 3.77.1 4.65.85 9.23 5.13 10.36 1.97.52 3.66.63 5.03.56 2.48-.12 3.87-.79 3.87-.79l-.08-1.76s-1.77.56-3.76.49c-1.97-.07-4.06-.21-4.38-2.63a6 6 0 0 1-.05-.74s1.94.47 4.4.58c1.5.07 2.91-.09 4.35-.27 2.77-.33 5.18-2.03 5.48-3.58.48-2.44.44-5.95.44-5.95Zm-3.62 5.86h-2.24v-5.5q0-1.75-1.47-1.75-1.62 0-1.62 2.09v3.01H10.4v-3.01q0-2.09-1.62-2.09-1.47 0-1.47 1.75v5.5H5.07v-5.67q0-1.74.9-2.74a3.1 3.1 0 0 1 2.41-1.01q1.71 0 2.57 1.32l.55.92.55-.92a2.9 2.9 0 0 1 2.57-1.32q1.48 0 2.41 1.01.9 1 .9 2.74v5.67Z"/></symbol><symbol id="icon-reddit" fill="currentColor" viewBox="0 0 24 24"><path d="M12 0a12 12 0 0 0-8.48 20.49l-2.3 2.28A.72.72 0 0 0 1.75 24H12a12 12 0 0 0 0-24m4.39 3.2a2 2 0 1 1-1.95 2.46A2.4 2.4 0 0 0 12.41 8c1.77.08 3.4.58 4.68 1.37A2.8 2.8 0 1 1 20 14.12c-.08 3.26-3.63 5.88-8 5.88-4.35 0-7.9-2.62-8-5.87A2.8 2.8 0 0 1 5.2 8.8c.64 0 1.24.22 1.7.59A9.6 9.6 0 0 1 11.56 8a3.23 3.23 0 0 1 2.88-3.22 2 2 0 0 1 1.96-1.6m-8.1 8.4c-.78 0-1.46.78-1.5 1.8s.64 1.43 1.42 1.43 1.37-.37 1.42-1.38-.55-1.85-1.34-1.85m7.4 0c-.78 0-1.38.83-1.33 1.85S15 14.8 15.8 14.8s1.47-.41 1.42-1.43c-.04-1.02-.72-1.8-1.5-1.8M12 15.6q-1.48 0-2.77.13a.22.22 0 0 0-.19.3A3.2 3.2 0 0 0 12.01 18a3.2 3.2 0 0 0 2.95-1.96.22.22 0 0 0-.19-.3 28 28 0 0 0-2.76-.14"/></symbol><symbol id="icon-whatsapp" fill="currentColor" viewBox="0 0 24 24"><path d="M17.47 14.38c-.3-.15-1.76-.87-2.03-.97s-.47-.14-.67.15-.76.97-.94 1.17-.34.22-.64.07-1.26-.46-2.4-1.47a9 9 0 0 1-1.64-2.06c-.18-.3-.02-.46.13-.6.13-.14.3-.35.44-.53s.2-.3.3-.5.05-.36-.03-.51-.66-1.62-.91-2.21c-.24-.58-.49-.5-.67-.51l-.57-.01c-.2 0-.52.07-.8.37-.26.3-1.03 1.02-1.03 2.48s1.06 2.88 1.21 3.08 2.1 3.2 5.08 4.48q1.04.44 1.7.63c.7.22 1.35.2 1.86.11.57-.08 1.76-.71 2-1.4s.26-1.3.18-1.42c-.07-.13-.27-.2-.57-.35m-5.42 7.4A10 10 0 0 1 7 20.42l-.36-.22-3.74.99 1-3.65-.23-.38a10 10 0 0 1-1.51-5.26 9.9 9.9 0 0 1 16.87-6.98 9.8 9.8 0 0 1 2.9 7 9.9 9.9 0 0 1-9.89 9.88m8.41-18.3a11.8 11.8 0 0 0-8.4-3.5 11.9 11.9 0 0 0-10.3 17.84L.05 24l6.31-1.65a12 12 0 0 0 5.69 1.44c6.55 0 11.89-5.33 11.9-11.89a11.8 11.8 0 0 0-3.49-8.41"/></symbol><symbol id="icon-telegram" fill="currentColor" viewBox="0 0 24 24"><path d="m2.12 11.08 19.04-7.35c.89-.34 1.66.21 1.38 1.51L19.3 20.51c-.24 1.14-.93 1.13-1.52.5l-4.24-3.93-2.04 1.97c-.23.22-.42.41-.85.41l.3-4.3 7.84-7.08c.34-.3-.08-.47-.53-.16l-9.68 6.1L4.4 12.7c-.9-.29-.92-.9.2-1.35z"/></symbol><symbol id="icon-messenger" fill="currentColor" viewBox="0 0 24 24"><path d="M12 0C5.37 0 0 4.97 0 11.11c0 3.5 1.74 6.62 4.47 8.66V24l4.09-2.24q1.64.46 3.44.46c6.63 0 12-4.97 12-11.1S18.63 0 12 0m1.2 14.96-3.06-3.26-5.97 3.26L10.73 8l3.13 3.26L19.76 8z"/></symbol><symbol id="icon-pinterest" fill="currentColor" viewBox="0 0 24 24"><path d="M12 0a12 12 0 0 0-4.37 23.17c-.1-.95-.2-2.4.04-3.44l1.4-5.96s-.35-.72-.35-1.78c0-1.67.96-2.92 2.17-2.92 1.02 0 1.52.77 1.52 1.7 0 1.02-.66 2.56-1 3.99-.28 1.2.6 2.17 1.78 2.17 2.13 0 3.77-2.25 3.77-5.5 0-2.87-2.06-4.88-5.01-4.88a5.2 5.2 0 0 0-5.42 5.2c0 1.04.4 2.14.9 2.74a.4.4 0 0 1 .08.35l-.34 1.36q-.06.33-.4.16c-1.5-.7-2.43-2.89-2.43-4.65 0-3.78 2.75-7.26 7.92-7.26 4.17 0 7.4 2.97 7.4 6.93 0 4.14-2.6 7.46-6.22 7.46-1.22 0-2.36-.63-2.75-1.37l-.75 2.85a13 13 0 0 1-1.5 3.15A12.03 12.03 0 0 0 24 12 12 12 0 0 0 12 0"/></symbol><symbol id="icon-linkedin" fill="none" stroke="currentColor" stroke-linecap="round" stroke-linejoin="round" stroke-width="2" viewBox="0 0 24 24"><path d="M16 8a6 6 0 0 1 6 6v7h-4v-7a2 2 0 0 0-2-2 2 2 0 0 0-2 2v7h-4v-7a6 6 0 0 1 6-6M2 9h4v12H2z"/><circle cx="4" cy="4" r="2"/></symbol><symbol id="icon-bluesky" fill="currentColor" viewBox="0 0 24 24"><path d="M12 10.8c-1.09-2.11-4.05-6.05-6.8-8C2.57.95 1.56 1.28.9 1.58.14 1.9 0 3.08 0 3.77s.38 5.65.62 6.48c.82 2.73 3.72 3.66 6.39 3.36l.41-.05-.41.05c-3.91.58-7.39 2-2.83 7.08 5.01 5.19 6.87-1.11 7.82-4.64.95 3.53 2.05 9.66 7.73 4.64 4.27-4.27 1.18-6.5-2.74-7.08l-.41-.05.41.05c2.67.3 5.57-.63 6.39-3.36.24-.83.62-5.8.62-6.48 0-.7-.14-1.86-.9-2.2-.66-.3-1.67-.63-4.3 1.23-2.75 1.95-5.71 5.89-6.8 8"/></symbol><symbol id="icon-instagram" fill="currentColor" viewBox="0 0 24 24"><path d="M12 2.16c3.2 0 3.58.01 4.85.07 3.25.15 4.77 1.7 4.92 4.92.06 1.27.07 1.65.07 4.85s-.01 3.58-.07 4.85c-.15 3.23-1.66 4.77-4.92 4.92-1.27.06-1.64.07-4.85.07a83 83 0 0 1-4.85-.07c-3.26-.15-4.77-1.7-4.92-4.92-.06-1.27-.07-1.64-.07-4.85s.02-3.58.07-4.85c.15-3.23 1.67-4.77 4.92-4.92A84 84 0 0 1 12 2.16M12 0C8.74 0 8.33.01 7.05.07 2.7.27.27 2.7.07 7.05.01 8.33 0 8.75 0 12s.01 3.67.07 4.95c.2 4.36 2.62 6.78 6.98 6.98 1.28.06 1.7.07 4.95.07s3.67-.01 4.95-.07c4.35-.2 6.78-2.62 6.98-6.98.06-1.28.07-1.7.07-4.95s-.01-3.67-.07-4.95C23.73 2.7 21.3.27 16.95.07A84 84 0 0 0 12 0m0 5.84a6.16 6.16 0 1 0 0 12.32 6.16 6.16 0 0 0 0-12.32M12 16a4 4 0 1 1 0-8 4 4 0 0 1 0 8m6.4-11.84a1.44 1.44 0 1 0 0 2.88 1.44 1.44 0 0 0 0-2.88"/></symbol><symbol id="icon-snapchat" fill="currentColor" viewBox="0 0 24 24"><path d="M12.2.8c1 0 4.35.27 5.94 3.81.52 1.2.4 3.22.3 4.85v.06l-.04.51q.11.09.4.1.46-.04 1.04-.31a1 1 0 0 1 .46-.1q.28 0 .5.09c.46.15.74.48.74.83q.03.68-1.21 1.17l-.34.12c-.45.14-1.14.36-1.34.81q-.14.34.12.87l.02.01c.06.14 1.52 3.48 4.79 4.02a.5.5 0 0 1 .42.5l-.05.23q-.35.85-3.14 1.27c-.06.1-.12.38-.17.57q-.04.26-.13.56-.12.4-.56.4h-.03a3 3 0 0 1-.53-.07 6 6 0 0 0-1.28-.14q-.45 0-.9.08c-.6.1-1.13.46-1.73.88-.86.6-1.83 1.29-3.3 1.29l-.18-.02h-.15a5.3 5.3 0 0 1-3.27-1.28c-.6-.42-1.11-.78-1.71-.89a7 7 0 0 0-.93-.07c-.54 0-.96.09-1.27.15a3 3 0 0 1-.54.07c-.38 0-.52-.22-.58-.42q-.1-.3-.14-.57c-.05-.18-.1-.5-.17-.57Q.4 19.27.06 18.4L0 18.17a.5.5 0 0 1 .42-.5c3.26-.55 4.73-3.89 4.8-4.03v-.03q.28-.52.13-.86c-.2-.44-.89-.66-1.34-.81l-.34-.12c-1.1-.44-1.26-.93-1.2-1.28.1-.47.68-.79 1.17-.79q.22 0 .38.08.64.3 1.1.3.36-.02.47-.11l-.04-.57c-.1-1.62-.23-3.65.3-4.84A6.3 6.3 0 0 1 11.73.8h.48z"/></symbol><symbol id="icon-tiktok" fill="currentColor" viewBox="0 0 24 24"><path d="M15.5 3a5.2 5.2 0 0 0 3 3.02V9a6 6 0 0 1-3.2-.9v6.18a5.3 5.3 0 1 1-5.3-5.3q.35 0 .7.06v2.86a2.52 2.52 0 1 0 1.86 2.42V3z"/></symbol><symbol id="icon-email" fill="none" stroke="currentColor" stroke-linecap="round" stroke-linejoin="round" stroke-width="2" viewBox="0 0 24 24"><rect width="20" height="16" x="2" y="4" rx="2"/><path d="m22 7-8.97 5.7a1.9 1.9 0 0 1-2.06 0L2 7"/></symbol><symbol id="icon-sms" fill="currentColor" viewBox="0 0 24 24"><path d="M20 2H4a2 2 0 0 0-2 2v18l4-4h14a2 2 0 0 0 2-2V4a2 2 0 0 0-2-2M9 11H7V9h2zm4 0h-2V9h2zm4 0h-2V9h2z"/></symbol><symbol id="icon-share" fill="none" stroke="currentColor" stroke-linecap="round" stroke-linejoin="round" stroke-width="2" viewBox="0 0 24 24"><path d="M4 12v8a2 2 0 0 0 2 2h12a2 2 0 0 0 2-2v-8m-4-6-4-4-4 4m4-4v13"/></symbol><symbol id="icon-discord" fill="currentColor" viewBox="0 0 24 24"><path d="M20.32 4.37a20 20 0 0 0-4.89-1.51l-.08.03c-.2.38-.44.87-.6 1.25a18 18 0 0 0-5.5 0 13 13 0 0 0-.6-1.25.1.1 0 0 0-.09-.03 20 20 0 0 0-4.88 1.51l-.04.03A20.3 20.3 0 0 0 .1 18.06l.03.05a20 20 0 0 0 6 3.03l.08-.02a14 14 0 0 0 1.22-2 .1.1 0 0 0-.04-.1 13 13 0 0 1-1.87-.9.1.1 0 0 1 0-.12l.36-.3h.08a14.2 14.2 0 0 0 12.06 0h.08l.37.3a.1.1 0 0 1 0 .12 12 12 0 0 1-1.88.9.1.1 0 0 0-.04.1q.54 1.04 1.23 2l.08.02a20 20 0 0 0 6-3.03l.04-.05c.5-5.18-.84-9.68-3.55-13.66zM8.02 15.33c-1.18 0-2.16-1.08-2.16-2.42s.96-2.42 2.16-2.42 2.18 1.09 2.16 2.42c0 1.34-.96 2.42-2.16 2.42m7.98 0c-1.19 0-2.16-1.08-2.16-2.42s.95-2.42 2.15-2.42c1.21 0 2.18 1.09 2.16 2.42 0 1.34-.94 2.42-2.15 2.42"/></symbol><symbol id="icon-close" fill="none" stroke="currentColor" stroke-linecap="round" stroke-linejoin="round" stroke-width="2" viewBox="0 0 24 24"><path d="M18 6 6 18M6 6l12 12"/></symbol></svg>